<?xml version="1.0" standalone="no"?><!DOCTYPE svg PUBLIC "-//W3C//DTD SVG 1.1//EN" "http://www.w3.org/Graphics/SVG/1.1/DTD/svg11.dtd"><svg class="icon" width="200px" height="200.00px" viewBox="0 0 1024 1024" version="1.1" xmlns="http://www.w3.org/2000/svg"><path fill="#333333" d="M512 73.142857v258.450286a18.285714 18.285714 0 0 0 28.416 15.213714l61.257143-40.740571a36.571429 36.571429 0 0 1 40.557714 0.036571l60.745143 40.594286A18.285714 18.285714 0 0 0 731.428571 331.52V73.142857a146.285714 146.285714 0 0 1 146.285715 146.285714v585.142858a146.285714 146.285714 0 0 1-146.285715 146.285714H292.571429a146.285714 146.285714 0 0 1-146.285715-146.285714V219.428571a146.285714 146.285714 0 0 1 146.285715-146.285714h219.428571z m-201.142857 329.142857a54.857143 54.857143 0 0 0-54.601143 49.590857L256 457.142857v256a54.857143 54.857143 0 0 0 109.458286 5.266286L365.714286 713.142857v-256A54.857143 54.857143 0 0 0 310.857143 402.285714z"  /></svg>