<?xml version="1.0" standalone="no"?><!DOCTYPE svg PUBLIC "-//W3C//DTD SVG 1.1//EN" "http://www.w3.org/Graphics/SVG/1.1/DTD/svg11.dtd"><svg class="icon" width="200px" height="200.00px" viewBox="0 0 1024 1024" version="1.1" xmlns="http://www.w3.org/2000/svg"><path fill="#333333" d="M684.032 156.708571a36.315429 36.315429 0 0 1 0.365714 0.402286l0.585143 0.585143a36.571429 36.571429 0 0 1 0 51.346286l-109.604571 111.213714H877.714286a73.142857 73.142857 0 0 1 73.142857 73.142857V841.142857a73.142857 73.142857 0 0 1-73.142857 73.142857H146.285714a73.142857 73.142857 0 0 1-73.142857-73.142857V393.435429a73.142857 73.142857 0 0 1 73.142857-73.142858l285.074286-0.036571-57.856-58.733714a36.571429 36.571429 0 0 1 0-51.309715l0.585143-0.585142a36.315429 36.315429 0 0 1 51.712 0l77.568 78.701714L632.685714 157.110857a36.315429 36.315429 0 0 1 51.346286-0.365714zM438.857143 468.297143a36.571429 36.571429 0 0 0-36.571429 36.571428v233.691429a36.571429 36.571429 0 0 0 55.954286 31.049143l186.989714-116.882286a36.571429 36.571429 0 0 0 0-62.025143l-186.989714-116.882285a36.571429 36.571429 0 0 0-19.382857-5.558858z"  /></svg>