<?xml version="1.0" standalone="no"?><!DOCTYPE svg PUBLIC "-//W3C//DTD SVG 1.1//EN" "http://www.w3.org/Graphics/SVG/1.1/DTD/svg11.dtd"><svg class="icon" width="200px" height="200.00px" viewBox="0 0 1024 1024" version="1.1" xmlns="http://www.w3.org/2000/svg"><path fill="#333333" d="M390.107429 581.302857l100.132571 164.937143a47.030857 47.030857 0 0 0 80.164571 0l100.132572-164.937143h161.206857c21.321143 0 39.936 14.262857 45.275429 34.633143l72.338285 277.211429a46.153143 46.153143 0 0 1-33.572571 56.246857c-3.803429 0.987429-7.716571 1.462857-11.702857 1.462857H156.489143A46.445714 46.445714 0 0 1 109.714286 904.667429c0-3.913143 0.512-7.789714 1.462857-11.556572l72.411428-277.174857a46.628571 46.628571 0 0 1 45.238858-34.633143h161.28zM530.285714 73.142857c129.060571 0 233.691429 103.424 233.691429 230.985143s-104.630857 230.985143-233.691429 230.985143c-129.060571 0-233.691429-103.424-233.691428-230.985143S401.225143 73.142857 530.285714 73.142857z"  /></svg>