<?xml version="1.0" standalone="no"?><!DOCTYPE svg PUBLIC "-//W3C//DTD SVG 1.1//EN" "http://www.w3.org/Graphics/SVG/1.1/DTD/svg11.dtd"><svg class="icon" width="200px" height="200.00px" viewBox="0 0 1024 1024" version="1.1" xmlns="http://www.w3.org/2000/svg"><path fill="#333333" d="M680.594286 153.746286l4.388571 3.949714a36.571429 36.571429 0 0 1 0 51.346286l-109.604571 111.213714H877.714286a73.142857 73.142857 0 0 1 73.142857 73.142857V841.142857a73.142857 73.142857 0 0 1-73.142857 73.142857H146.285714a73.142857 73.142857 0 0 1-73.142857-73.142857V393.435429a73.142857 73.142857 0 0 1 73.142857-73.142858l285.074286-0.036571-57.856-58.733714a36.571429 36.571429 0 0 1-2.962286-47.908572l3.547429-4.022857a36.315429 36.315429 0 0 1 47.908571-3.364571l3.803429 3.401143 77.568 78.701714L632.685714 157.110857a36.315429 36.315429 0 0 1 47.908572-3.364571z m-241.737143 314.514285a36.571429 36.571429 0 0 0-36.571429 36.571429v233.764571a36.571429 36.571429 0 0 0 55.954286 31.012572l186.989714-116.882286a36.571429 36.571429 0 0 0 0-62.025143l-186.989714-116.882285a36.571429 36.571429 0 0 0-19.382857-5.558858z"  /></svg>