<?xml version="1.0" standalone="no"?><!DOCTYPE svg PUBLIC "-//W3C//DTD SVG 1.1//EN" "http://www.w3.org/Graphics/SVG/1.1/DTD/svg11.dtd"><svg class="icon" width="200px" height="200.00px" viewBox="0 0 1024 1024" version="1.1" xmlns="http://www.w3.org/2000/svg"><path fill="#333333" d="M503.881143 328.923429c258.852571 0 394.203429 181.321143 394.203428 360.045714 0 108.617143-40.740571 253.147429-394.203428 253.147428C150.454857 942.08 109.714286 797.586286 109.714286 688.969143c0-178.724571 135.314286-360.045714 394.166857-360.045714z m-69.193143 146.432H361.984l98.304 178.176h-65.024v33.792h83.968l0.512 0.512v42.496h-84.48v33.792h84.48v76.8h64.512v-76.8h84.992v-33.792h-84.992v-42.496l0.512-0.512h84.48v-33.792h-65.536l98.304-178.176h-72.704L512 629.467429l-77.312-154.112z m133.595429-400.457143a167.314286 167.314286 0 0 1 110.811428 22.345143 84.516571 84.516571 0 0 1 35.474286 117.833142 667.062857 667.062857 0 0 1-46.006857 65.243429 43.812571 43.812571 0 0 1-43.776 15.762286h-1.316572a562.834286 562.834286 0 0 0-241.737143 0 43.812571 43.812571 0 0 1-43.812571-15.725715A667.062857 667.062857 0 0 1 291.035429 215.04c-25.856-47.762286-3.072-109.056 43.812571-112.128 29.330286-2.194286 72.265143 33.718857 116.918857 28.891429 44.690286-4.790857 77.092571-50.797714 116.516572-56.941715z"  /></svg>