<?xml version="1.0" standalone="no"?><!DOCTYPE svg PUBLIC "-//W3C//DTD SVG 1.1//EN" "http://www.w3.org/Graphics/SVG/1.1/DTD/svg11.dtd"><svg class="icon" width="200px" height="200.00px" viewBox="0 0 1024 1024" version="1.1" xmlns="http://www.w3.org/2000/svg"><path fill="#333333" d="M804.571429 109.714286a146.285714 146.285714 0 0 1 146.285714 146.285714v402.285714a146.285714 146.285714 0 0 1-125.074286 144.749715l53.248 53.248a54.857143 54.857143 0 0 1-77.604571 77.604571L672.182857 804.571429H351.817143l-129.243429 129.316571a54.857143 54.857143 0 0 1-77.604571-77.604571l53.284571-53.248A146.285714 146.285714 0 0 1 73.142857 658.285714V256a146.285714 146.285714 0 0 1 146.285714-146.285714h585.142858z m-73.142858 402.285714H219.428571a36.571429 36.571429 0 0 0-4.278857 72.886857L219.428571 585.142857h512a36.571429 36.571429 0 0 0 0-73.142857z m-219.428571-182.857143H219.428571a36.571429 36.571429 0 0 0-4.278857 72.886857L219.428571 402.285714h292.571429a36.571429 36.571429 0 0 0 0-73.142857z"  /></svg>