<?xml version="1.0" standalone="no"?><!DOCTYPE svg PUBLIC "-//W3C//DTD SVG 1.1//EN" "http://www.w3.org/Graphics/SVG/1.1/DTD/svg11.dtd"><svg class="icon" width="200px" height="200.00px" viewBox="0 0 1024 1024" version="1.1" xmlns="http://www.w3.org/2000/svg"><path fill="#333333" d="M512 39.384615c130.875077 0 236.937846 104.96 236.937846 234.456616 0 129.575385-106.062769 234.535385-236.937846 234.535384-130.914462 0-236.977231-104.96-236.977231-234.535384C275.022769 144.344615 381.085538 39.384615 512 39.384615z m0 77.981539c-87.236923 0-158.168615 70.183385-158.168615 156.475077 0 86.331077 70.931692 156.553846 158.168615 156.553846 87.197538 0 158.129231-70.222769 158.129231-156.553846 0-86.252308-70.931692-156.475077-158.129231-156.475077z m0.039385 476.002461C751.222154 593.368615 945.230769 680.96 945.230769 789.031385 945.230769 897.024 751.222154 984.615385 512.039385 984.615385 272.738462 984.615385 78.769231 897.024 78.769231 789.031385c0-108.110769 193.969231-195.662769 433.270154-195.66277z m0 77.981539c-230.281846 0-354.461538 83.534769-354.461539 117.681231 0 34.107077 124.219077 117.602462 354.461539 117.602461 230.203077 0 354.382769-83.495385 354.382769-117.602461 0-34.146462-124.179692-117.641846-354.382769-117.641847z" /></svg>