<?xml version="1.0" standalone="no"?><!DOCTYPE svg PUBLIC "-//W3C//DTD SVG 1.1//EN" "http://www.w3.org/Graphics/SVG/1.1/DTD/svg11.dtd"><svg class="icon" width="200px" height="200.00px" viewBox="0 0 1024 1024" version="1.1" xmlns="http://www.w3.org/2000/svg"><path fill="#333333" d="M346.3 160.4v182.9H163.4V160.4h182.9M392 68.9H117.7C92.5 68.9 72 89.4 72 114.7V389c0 25.3 20.5 45.7 45.7 45.7H392c25.3 0 45.7-20.5 45.7-45.7V114.7c0.1-25.3-20.4-45.8-45.7-45.8zM860.6 162.9v182.9H677.7V162.9h182.9M906 71.4H632.2c-25.4 0-46 20.6-46 46v273.8c0 25.4 20.6 46 46 46H906c25.4 0 46-20.6 46-46V117.4c0-25.4-20.6-46-46-46zM860.6 680.7v182.9H677.7V680.7h182.9m45.5-91.4H632.2c-25.4 0-45.9 20.6-45.9 45.9v273.9c0 25.4 20.6 45.9 45.9 45.9h273.9c25.4 0 45.9-20.6 45.9-45.9V635.3c0-25.4-20.6-46-45.9-46zM346.3 680.7v182.9H163.4V680.7h182.9m45.6-91.4H117.8c-25.3 0-45.8 20.5-45.8 45.8v274.1c0 25.3 20.5 45.8 45.8 45.8h274.1c25.3 0 45.8-20.5 45.8-45.8V635.1c0.1-25.3-20.5-45.8-45.8-45.8z"  /></svg>