<?xml version="1.0" standalone="no"?><!DOCTYPE svg PUBLIC "-//W3C//DTD SVG 1.1//EN" "http://www.w3.org/Graphics/SVG/1.1/DTD/svg11.dtd"><svg class="icon" width="200px" height="200.00px" viewBox="0 0 1024 1024" version="1.1" xmlns="http://www.w3.org/2000/svg"><path fill="#333333" d="M436.8 434.7H73c-0.6 0-1-0.4-1-1V69.9c0-0.6 0.4-1 1-1h363.8c0.6 0 1 0.4 1 1v363.8c0 0.5-0.5 1-1 1zM951 437.2H587.3c-0.6 0-1-0.5-1-1V72.4c0-0.6 0.5-1 1-1H951c0.6 0 1 0.5 1 1v363.7c0 0.6-0.5 1.1-1 1.1zM951 955.1H587.3c-0.6 0-1-0.4-1-1V590.3c0-0.6 0.4-1 1-1H951c0.6 0 1 0.4 1 1V954c0 0.6-0.4 1.1-1 1.1zM436.8 955.1H73c-0.6 0-1-0.4-1-1V590.3c0-0.6 0.4-1 1-1h363.7c0.6 0 1 0.4 1 1V954c0.1 0.6-0.4 1.1-0.9 1.1z"  /></svg>