<?xml version="1.0" standalone="no"?><!DOCTYPE svg PUBLIC "-//W3C//DTD SVG 1.1//EN" "http://www.w3.org/Graphics/SVG/1.1/DTD/svg11.dtd"><svg class="icon" width="200px" height="200.00px" viewBox="0 0 1024 1024" version="1.1" xmlns="http://www.w3.org/2000/svg"><path d="M85.333333 451.047619a426.666667 426.666667 0 1 0 853.333334 0 426.666667 426.666667 0 1 0-853.333334 0Z" fill="#474747" /><path d="M512 451.047619m-353.52381 0a353.52381 353.52381 0 1 0 707.04762 0 353.52381 353.52381 0 1 0-707.04762 0Z" fill="#D4A95B" /><path d="M109.714286 926.47619h804.571428v73.142858h-804.571428v-73.142858z" fill="#474747" /><path d="M670.47619 512c0 95.085714-70.704762 170.666667-158.47619 170.666667s-158.47619-75.580952-158.47619-170.666667c173.104762 0 185.295238 2.438095 316.95238 0z" fill="#FFFFFF" /></svg>