<?xml version="1.0" standalone="no"?><!DOCTYPE svg PUBLIC "-//W3C//DTD SVG 1.1//EN" "http://www.w3.org/Graphics/SVG/1.1/DTD/svg11.dtd"><svg class="icon" width="200px" height="200.00px" viewBox="0 0 1024 1024" version="1.1" xmlns="http://www.w3.org/2000/svg"><path d="M109.714286 926.47619h804.571428v73.142858h-804.571428v-73.142858z" fill="#474747" /><path d="M670.47619 512c0 95.085714-70.704762 170.666667-158.47619 170.666667s-158.47619-75.580952-158.47619-170.666667c173.104762 0 185.295238 2.438095 316.95238 0z" fill="#C0C0C0" /><path d="M512 24.380952c-236.495238 0-426.666667 190.171429-426.666667 426.666667s190.171429 426.666667 426.666667 426.666667 426.666667-190.171429 426.666667-426.666667-190.171429-426.666667-426.666667-426.666667z m0 780.190477c-195.047619 0-353.52381-158.47619-353.52381-353.52381s158.47619-353.52381 353.52381-353.523809 353.52381 158.47619 353.52381 353.523809-158.47619 353.52381-353.52381 353.52381z" fill="#474747" /></svg>