<?xml version="1.0" standalone="no"?><!DOCTYPE svg PUBLIC "-//W3C//DTD SVG 1.1//EN" "http://www.w3.org/Graphics/SVG/1.1/DTD/svg11.dtd"><svg class="icon" width="200px" height="200.00px" viewBox="0 0 1024 1024" version="1.1" xmlns="http://www.w3.org/2000/svg"><path fill="#333333" d="M875.154286 475.428571l-44.251429-44.617142-36.571428-36.571429-154.697143-156.16-36.571429-36.571429-30.72-30.72a87.04 87.04 0 0 0-123.245714 0l-30.72 30.72-36.571429 36.571429-153.234285 156.16-36.571429 36.571429L148.845714 475.428571a17.554286 17.554286 0 1 0 24.868572 25.234286l19.382857-19.382857v344.502857A53.394286 53.394286 0 0 0 246.491429 877.714286h531.017142a53.394286 53.394286 0 0 0 53.028572-53.394286v-344.137143l19.382857 19.382857a17.554286 17.554286 0 0 0 24.868571-25.234285zM512 558.08a88.868571 88.868571 0 1 1 88.502857-88.868571A88.868571 88.868571 0 0 1 512 558.08z"  /></svg>