<?xml version="1.0" standalone="no"?><!DOCTYPE svg PUBLIC "-//W3C//DTD SVG 1.1//EN" "http://www.w3.org/Graphics/SVG/1.1/DTD/svg11.dtd"><svg class="icon" width="200px" height="200.00px" viewBox="0 0 1024 1024" version="1.1" xmlns="http://www.w3.org/2000/svg"><path fill="#333333" d="M236.126815 501.039407l-7.774815-36.446814H227.555556v-3.792593l-8.05926-37.869037c-22.471111-102.968889-35.877926-153.486222-40.049777-169.851259-5.669926-20.48-15.132444-27.83763-21.921186-27.83763H57.628444c-10.903704 0-19.702519-8.192-19.702518-18.204444 0-10.05037 8.798815-26.889481 19.721481-26.889482h99.877926c10.467556 0 55.561481 1.042963 70.030223 52.527408 5.025185 19.702519 21.769481 98.038519 39.784296 184.509629H568.888889v47.407408H277.18163c3.640889 17.521778 7.224889 34.986667 10.733037 52.015407l27.989333 131.489185a33.185185 33.185185 0 0 0 32.369778 25.903408h400.118518c29.50637 0 48.621037-17.21837 53.665185-36.503704-0.436148 1.479111 18.792296-90.699852 30.170075-143.853037l2.085925-9.803852c14.980741-69.707852 25.543111-115.939556 30.530371-132.28563 3.640889-12.003556 2.294519-19.759407-1.649778-25.505185-5.082074-7.395556-14.885926-11.377778-23.552-12.325926H304.583111v-47.407407h536.215704c9.121185 0.70163 17.464889 2.389333 26.358518 5.840592 14.032593 5.44237 26.244741 14.184296 35.119408 27.041186 11.927704 17.426963 15.834074 39.992889 7.945481 66.142814-4.437333 14.506667-14.980741 60.719407-29.544296 128.474075l-2.085926 9.746962c-10.107259 47.217778-30.90963 146.811259-30.90963 146.773334-9.936593 38.020741-46.610963 71.073185-99.309037 71.073185H348.273778c-3.90637 0-7.755852-0.265481-11.529482-0.815407h-1.725629c-47.881481 0-59.809185-24.158815-62.691556-38.58963l-5.006222-25.391407a11607.893333 11607.893333 0 0 0-31.194074-155.572149z"  /><path fill="#333333" d="M375.770074 905.481481a58.159407 58.159407 0 0 0 58.254222-57.98874 58.159407 58.159407 0 0 0-58.254222-57.988741c-32.199111 0-58.368 26.036148-58.368 57.988741 0 31.952593 26.168889 57.988741 58.368 57.98874z m0 47.407408c-58.311111 0-105.775407-47.217778-105.775407-105.396148 0-58.216296 47.464296-105.396148 105.775407-105.396148 58.292148 0 105.66163 47.179852 105.66163 105.396148s-47.369481 105.396148-105.66163 105.396148zM744.011852 905.481481c32.180148 0 58.368-26.036148 58.368-57.98874 0-31.952593-26.168889-57.988741-58.368-57.988741s-58.368 26.036148-58.368 57.988741c0 31.952593 26.168889 57.988741 58.368 57.98874z m0 47.407408c-58.311111 0-105.775407-47.217778-105.775408-105.396148 0-58.216296 47.464296-105.396148 105.775408-105.396148s105.775407 47.198815 105.775407 105.396148-47.464296 105.396148-105.775407 105.396148z"  /></svg>